<?xml version="1.0" encoding="UTF-8"?>
<svg version="1.1" xmlns="http://www.w3.org/2000/svg" width="480" height="480">
<path d="M0 0 C3.65539758 0.47594667 6.53122218 1.59555529 9.78686523 3.28491211 C10.70809677 3.75887924 11.62932831 4.23284637 12.57847595 4.72117615 C13.56191483 5.23471146 14.5453537 5.74824677 15.55859375 6.27734375 C17.09145775 7.06716393 17.09145775 7.06716393 18.6552887 7.87294006 C21.91908422 9.55528208 25.17861462 11.24566847 28.4375 12.9375 C31.693141 14.62510228 34.94969815 16.31082559 38.20899963 17.99134827 C40.23574579 19.03656401 42.26036999 20.08590736 44.28257751 21.13987732 C52.24842833 25.8995796 52.24842833 25.8995796 60.94995117 26.10058594 C62.48099487 25.30056152 62.48099487 25.30056152 64.04296875 24.484375 C65.19071777 23.89696533 66.3384668 23.30955566 67.52099609 22.7043457 C68.74340611 22.05335143 69.96556941 21.40189371 71.1875 20.75 C72.44262102 20.09876489 73.69865119 19.44927911 74.95556641 18.80151367 C78.64950576 16.89086463 82.32473762 14.9463261 86 13 C87.95117434 11.97922806 89.90293247 10.95957064 91.85546875 9.94140625 C94.99104128 8.30259093 98.12013633 6.6526992 101.2421875 4.98828125 C102.20656738 4.48095459 102.20656738 4.48095459 103.19042969 3.96337891 C104.89324645 3.05683344 106.57635234 2.11353807 108.2578125 1.16796875 C111 0 111 0 112.96606445 0.14379883 C115.80289579 1.3379853 116.64857378 2.94254992 118.28515625 5.53125 C118.89294922 6.4790332 119.50074219 7.42681641 120.12695312 8.40332031 C121.08504883 9.93617676 121.08504883 9.93617676 122.0625 11.5 C122.72572266 12.53995117 123.38894531 13.57990234 124.07226562 14.65136719 C125.42006377 16.76534374 126.76334828 18.88220495 128.10205078 21.00195312 C130.70073665 25.10690071 133.34968425 29.17829383 136 33.25 C136.81341085 34.50461827 137.6259332 35.75981309 138.4375 37.015625 C138.82664078 37.59504852 139.21578156 38.17447205 139.61671448 38.77145386 C141 41 141 41 142.31759644 43.73574829 C145.37396609 49.6520186 145.37396609 49.6520186 150.83282471 53.07727051 C154.31916137 53.54588448 157.677607 53.67880565 161.1953125 53.6953125 C163.09372391 53.76829056 163.09372391 53.76829056 165.03048706 53.84274292 C168.38033235 53.96261918 171.72465926 54.03672618 175.07580566 54.08770752 C178.48008221 54.14966061 181.88233833 54.26747499 185.28515625 54.3828125 C189.11349406 54.51013531 192.94044696 54.630052 196.77005005 54.7114563 C197.90828217 54.73593842 199.04651428 54.76042053 200.21923828 54.78564453 C201.7164592 54.81248825 201.7164592 54.81248825 203.243927 54.83987427 C205.9178551 54.99522744 208.39154651 55.4065183 211 56 C211.97785494 61.37337562 212.09009848 66.56709297 212.08334351 72.02336121 C212.08700622 76.94890999 212.20257657 81.87053112 212.31347656 86.79467773 C212.35434584 89.38063275 212.36336182 91.96729577 212.33984375 94.5534668 C211.7253818 108.67079255 211.7253818 108.67079255 216.81924438 121.28826904 C221.29092811 125.15719164 226.32425511 127.65666656 231.72521973 129.98623657 C234.63262498 131.28193144 237.18871319 132.93476301 239.80859375 134.734375 C240.58936279 135.24170166 241.37013184 135.74902832 242.17456055 136.27172852 C245.37768425 138.36417797 248.57893666 140.45947891 251.77929688 142.55615234 C253.80600863 143.87387148 255.84443136 145.16985761 257.890625 146.45703125 C258.97859375 147.15183594 260.0665625 147.84664062 261.1875 148.5625 C262.57001953 149.43068359 262.57001953 149.43068359 263.98046875 150.31640625 C266.32536688 152.27124395 266.63357238 153.02741498 267 156 C266.35424805 157.98852539 266.35424805 157.98852539 265.26171875 160.09765625 C264.85864502 160.88962402 264.45557129 161.6815918 264.0402832 162.49755859 C263.37065552 163.76720459 263.37065552 163.76720459 262.6875 165.0625 C262.2339917 165.94502441 261.7804834 166.82754883 261.31323242 167.73681641 C259.88911352 170.49855035 258.44720838 173.25030408 257 176 C256.33339355 177.27157959 256.33339355 177.27157959 255.65332031 178.56884766 C254.37534092 181.00544527 253.0942345 183.44037603 251.8125 185.875 C251.19652954 187.04820801 251.19652954 187.04820801 250.56811523 188.24511719 C248.65807942 191.87796786 246.73058041 195.49707228 244.74609375 199.08984375 C244.0802605 200.33047775 243.41486697 201.57134789 242.75 202.8125 C241.87601562 204.39998047 241.87601562 204.39998047 240.984375 206.01953125 C239.04235064 211.89954945 242.9600675 217.1543928 245.57983398 222.38623047 C246.04848877 223.31064941 246.51714355 224.23506836 247 225.1875 C247.48476807 226.15059082 247.96953613 227.11368164 248.46899414 228.10595703 C252.49020922 236.0648159 256.62343944 243.96230718 260.80859375 251.8359375 C261.17065918 252.52655273 261.53272461 253.21716797 261.90576172 253.92871094 C262.65752023 255.35171835 263.4257496 256.76610825 264.20751953 258.17285156 C264.58376465 258.87120117 264.96000977 259.56955078 265.34765625 260.2890625 C265.68933838 260.9073291 266.03102051 261.5255957 266.38305664 262.16259766 C267.19982069 264.59511299 267.05168557 265.65883381 266 268 C264.04492187 269.65649414 264.04492187 269.65649414 261.46875 271.28515625 C260.5209668 271.89294922 259.57318359 272.50074219 258.59667969 273.12695312 C257.57477539 273.76568359 256.55287109 274.40441406 255.5 275.0625 C254.46004883 275.72572266 253.42009766 276.38894531 252.34863281 277.07226562 C250.23465626 278.42006377 248.11779505 279.76334828 245.99804688 281.10205078 C241.89309929 283.70073665 237.82170617 286.34968425 233.75 289 C232.49538173 289.81341085 231.24018691 290.6259332 229.984375 291.4375 C229.40495148 291.82664078 228.82552795 292.21578156 228.22854614 292.61671448 C226 294 226 294 223.26425171 295.31759644 C217.3479814 298.37396609 217.3479814 298.37396609 213.92272949 303.83282471 C213.45411552 307.31916137 213.32119435 310.677607 213.3046875 314.1953125 C213.23170944 316.09372391 213.23170944 316.09372391 213.15725708 318.03048706 C213.03738082 321.38033235 212.96327382 324.72465926 212.91229248 328.07580566 C212.85033939 331.48008221 212.73252501 334.88233833 212.6171875 338.28515625 C212.48986469 342.11349406 212.369948 345.94044696 212.2885437 349.77005005 C212.25182053 351.47739822 212.25182053 351.47739822 212.21435547 353.21923828 C212.19645966 354.21738556 212.17856384 355.21553284 212.16012573 356.243927 C212.00477256 358.9178551 211.5934817 361.39154651 211 364 C207.0344696 364.74219443 203.30867948 365.11349952 199.27685547 365.08740234 C193.13253554 365.07993426 186.99629342 365.17808597 180.85351562 365.31347656 C178.21221523 365.35432141 175.5702223 365.36337615 172.92871094 365.33984375 C158.55970181 364.70259232 158.55970181 364.70259232 145.68701172 369.81924438 C141.80273654 374.28324837 139.31610589 379.31301239 137.00469971 384.72521973 C135.71836888 387.63765213 134.06708364 390.18928584 132.265625 392.80859375 C131.75829834 393.58936279 131.25097168 394.37013184 130.72827148 395.17456055 C128.63582203 398.37768425 126.54052109 401.57893666 124.44384766 404.77929688 C123.12612852 406.80600863 121.83014239 408.84443136 120.54296875 410.890625 C119.84816406 411.97859375 119.15335937 413.0665625 118.4375 414.1875 C117.56931641 415.57001953 117.56931641 415.57001953 116.68359375 416.98046875 C114.72024088 419.33558113 113.99531562 419.66284464 111 420 C108.77505493 419.22930908 108.77505493 419.22930908 106.32666016 417.95800781 C105.40535309 417.48711731 104.48404602 417.01622681 103.53482056 416.53106689 C102.05192032 415.74998566 102.05192032 415.74998566 100.5390625 414.953125 C99.00407608 414.16261749 99.00407608 414.16261749 97.43807983 413.35614014 C94.1611028 411.66531875 90.89305339 409.95799498 87.625 408.25 C85.43026172 407.11347378 83.23495546 405.97804365 81.0390625 404.84375 C76.99982084 402.75585678 72.96422745 400.66122217 68.93212891 398.55957031 C68.07098984 398.1137561 67.20985077 397.66794189 66.32261658 397.20861816 C64.37387776 396.19455447 62.4359475 395.15975691 60.50073242 394.12011719 C58.02586692 392.728322 58.02586692 392.728322 55.26171875 393.5 C50.73292047 395.58270484 46.25857302 397.7459642 41.8125 400 C40.84940918 400.48476807 39.88631836 400.96953613 38.89404297 401.46899414 C30.9351841 405.49020922 23.03769282 409.62343944 15.1640625 413.80859375 C14.47344727 414.17065918 13.78283203 414.53272461 13.07128906 414.90576172 C11.64828165 415.65752023 10.23389175 416.4257496 8.82714844 417.20751953 C8.12879883 417.58376465 7.43044922 417.96000977 6.7109375 418.34765625 C5.7835376 418.86017944 5.7835376 418.86017944 4.83740234 419.38305664 C2.40488701 420.19982069 1.34116619 420.05168557 -1 419 C-2.65649414 417.04492187 -2.65649414 417.04492187 -4.28515625 414.46875 C-4.89294922 413.5209668 -5.50074219 412.57318359 -6.12695312 411.59667969 C-6.76568359 410.57477539 -7.40441406 409.55287109 -8.0625 408.5 C-8.72572266 407.46004883 -9.38894531 406.42009766 -10.07226562 405.34863281 C-11.42006377 403.23465626 -12.76334828 401.11779505 -14.10205078 398.99804688 C-16.70073665 394.89309929 -19.34968425 390.82170617 -22 386.75 C-22.81341085 385.49538173 -23.6259332 384.24018691 -24.4375 382.984375 C-24.82631348 382.40495148 -25.21512695 381.82552795 -25.61572266 381.22854614 C-27 379 -27 379 -28.32652283 376.26425171 C-31.37364642 370.37216435 -31.37364642 370.37216435 -36.78713989 366.92272949 C-40.2046737 366.45430977 -43.49191428 366.32121393 -46.94140625 366.3046875 C-48.80296608 366.23170944 -48.80296608 366.23170944 -50.70213318 366.15725708 C-53.98661133 366.03742058 -57.26782121 365.96327523 -60.55395508 365.91229248 C-63.8882426 365.85038505 -67.21981077 365.7310356 -70.55273438 365.6171875 C-74.30492943 365.48998745 -78.05574216 365.37013656 -81.80921936 365.2885437 C-82.92735519 365.26406158 -84.04549103 365.23957947 -85.19750977 365.21435547 C-86.17567154 365.19645966 -87.15383331 365.17856384 -88.16163635 365.16012573 C-91.1654823 364.99066435 -94.04322259 364.54553972 -97 364 C-97.97785494 358.62662438 -98.09009848 353.43290703 -98.08334351 347.97663879 C-98.08700622 343.05109001 -98.20257657 338.12946888 -98.31347656 333.20532227 C-98.35434584 330.61936725 -98.36336182 328.03270423 -98.33984375 325.4465332 C-97.73019791 311.34732029 -97.73019791 311.34732029 -102.7930603 298.72885132 C-107.2443635 294.86424501 -112.27706218 292.39417223 -117.65429688 290.05996704 C-120.87503713 288.60459169 -123.61561146 286.78402373 -126.53515625 284.79296875 C-127.46650391 284.18646484 -128.39785156 283.57996094 -129.35742188 282.95507812 C-130.69643555 282.08012695 -130.69643555 282.08012695 -132.0625 281.1875 C-132.98998047 280.58486328 -133.91746094 279.98222656 -134.87304688 279.36132812 C-141.00320537 275.36190447 -147.02950117 271.23392043 -153 267 C-152.41421401 263.43898607 -151.47494206 260.59953125 -149.82275391 257.39672852 C-149.37203522 256.51553848 -148.92131653 255.63434845 -148.4569397 254.72645569 C-147.96841522 253.78676437 -147.47989075 252.84707306 -146.9765625 251.87890625 C-146.47458344 250.90138901 -145.97260437 249.92387177 -145.45541382 248.91673279 C-143.85105455 245.79564052 -142.23821383 242.67902326 -140.625 239.5625 C-139.54630162 237.46839421 -138.46817019 235.37399628 -137.390625 233.27929688 C-135.40932242 229.42856887 -133.42423185 225.57983823 -131.43603516 221.73266602 C-131.01360535 220.90954422 -130.59117554 220.08642242 -130.15594482 219.23835754 C-129.16800037 217.32531389 -128.15643957 215.42449753 -127.14013672 213.52636719 C-125.7340488 211.04234762 -125.7340488 211.04234762 -126.46875 208.32421875 C-128.71976742 203.43744369 -131.06961284 198.61258103 -133.5 193.8125 C-134.03101318 192.75691895 -134.56202637 191.70133789 -135.10913086 190.61376953 C-139.29315346 182.32559829 -143.58273181 174.09588517 -147.94140625 165.8984375 C-148.29219238 165.23038086 -148.64297852 164.56232422 -149.00439453 163.87402344 C-149.92345164 162.14408662 -150.88004428 160.43423119 -151.83984375 158.7265625 C-153 156 -153 156 -152.85571289 154.03491211 C-151.66227876 151.1968883 -150.05809832 150.35183604 -147.46875 148.71484375 C-146.5209668 148.10705078 -145.57318359 147.49925781 -144.59667969 146.87304688 C-143.06382324 145.91495117 -143.06382324 145.91495117 -141.5 144.9375 C-140.46004883 144.27427734 -139.42009766 143.61105469 -138.34863281 142.92773438 C-136.23465626 141.57993623 -134.11779505 140.23665172 -131.99804688 138.89794922 C-127.89309929 136.29926335 -123.82170617 133.65031575 -119.75 131 C-118.49538173 130.18658915 -117.24018691 129.3740668 -115.984375 128.5625 C-115.40495148 128.17335922 -114.82552795 127.78421844 -114.22854614 127.38328552 C-112 126 -112 126 -109.26425171 124.68240356 C-103.3479814 121.62603391 -103.3479814 121.62603391 -99.92272949 116.16717529 C-99.45411552 112.68083863 -99.32119435 109.322393 -99.3046875 105.8046875 C-99.25603546 104.5390799 -99.20738342 103.27347229 -99.15725708 101.96951294 C-99.03738082 98.61966765 -98.96327382 95.27534074 -98.91229248 91.92419434 C-98.85033939 88.51991779 -98.73252501 85.11766167 -98.6171875 81.71484375 C-98.48986469 77.88650594 -98.369948 74.05955304 -98.2885437 70.22994995 C-98.26406158 69.09171783 -98.23957947 67.95348572 -98.21435547 66.78076172 C-98.19645966 65.78261444 -98.17856384 64.78446716 -98.16012573 63.756073 C-98.00477256 61.0821449 -97.5934817 58.60845349 -97 56 C-91.29780764 55.12559478 -85.78183239 54.90938293 -80.01580811 54.91665649 C-75.19444222 54.91298503 -70.37706071 54.79749846 -65.55712891 54.68652344 C-63.02651958 54.64562863 -60.49518608 54.63665312 -57.96435547 54.66015625 C-44.09868134 55.25158197 -44.09868134 55.25158197 -31.7364502 50.18075562 C-27.88286309 45.7012843 -25.37050244 40.66458727 -23.02282715 35.27478027 C-21.71779757 32.37237828 -20.06341089 29.81189084 -18.265625 27.19140625 C-17.75805664 26.41063721 -17.25048828 25.62986816 -16.72753906 24.82543945 C-16.23995117 24.07866943 -15.75236328 23.33189941 -15.25 22.5625 C-14.71342773 21.73903076 -14.17685547 20.91556152 -13.62402344 20.06713867 C-1.52704276 1.52704276 -1.52704276 1.52704276 0 0 Z " fill="#42A5F5" transform="translate(183,30)"/>
<path d="M0 0 C3.18683375 1.39486912 5.20743231 3.01127235 7.56640625 5.5546875 C8.21673828 6.25207031 8.86707031 6.94945312 9.53710938 7.66796875 C10.20548828 8.39628906 10.87386719 9.12460938 11.5625 9.875 C12.23474609 10.59558594 12.90699219 11.31617188 13.59960938 12.05859375 C16.5776709 15.27028672 19.41541128 18.4586471 22 22 C20.99259766 22.89912109 20.99259766 22.89912109 19.96484375 23.81640625 C11.08060545 31.84477436 2.63488281 40.29463007 -5.77563477 48.81274414 C-13.72818503 56.8465877 -13.72818503 56.8465877 -17.94921875 60.44921875 C-23.61677422 65.29503293 -28.76518292 70.69732418 -34 76 C-45.56993718 87.71991784 -45.56993718 87.71991784 -49.96875 91.46875 C-55.81128154 96.45421597 -61.10647314 102.03963097 -66.5 107.5 C-79.11709095 120.27345501 -79.11709095 120.27345501 -85.40429688 125.63134766 C-87.36342148 127.31171065 -89.19428981 129.09417085 -91 130.9375 C-91.5775 131.52402344 -92.155 132.11054688 -92.75 132.71484375 C-93.1625 133.13894531 -93.575 133.56304687 -94 134 C-98.21592931 132.35606624 -101.03022614 129.23644614 -104.14550781 126.08154297 C-104.75081329 125.47652954 -105.35611877 124.87151611 -105.97976685 124.24816895 C-107.9756645 122.25088001 -109.96438799 120.24660442 -111.953125 118.2421875 C-113.33702668 116.85455498 -114.72137112 115.4673639 -116.10614014 114.08059692 C-119.7470322 110.432074 -123.38187778 106.77758448 -127.01550293 103.12182617 C-130.72545688 99.39140211 -134.44108927 95.66664357 -138.15625 91.94140625 C-145.44307344 84.63314253 -152.72352265 77.31856384 -160 70 C-159.04162906 68.87609641 -158.08243549 67.75289426 -157.12289429 66.62998962 C-156.58883154 66.00443145 -156.05476879 65.37887327 -155.50452232 64.73435879 C-153.85464832 62.83244386 -152.14023287 61.02570237 -150.3515625 59.25390625 C-149.73925781 58.64482422 -149.12695312 58.03574219 -148.49609375 57.40820312 C-147.87863281 56.79912109 -147.26117188 56.19003906 -146.625 55.5625 C-145.98433594 54.92634766 -145.34367188 54.29019531 -144.68359375 53.63476562 C-143.12469121 52.08749668 -141.56348584 50.54263508 -140 49 C-136.64000982 50.45868754 -134.44796894 52.30868948 -131.87402344 54.89892578 C-131.07349548 55.6996048 -130.27296753 56.50028381 -129.44818115 57.32522583 C-128.59387512 58.18985443 -127.73956909 59.05448303 -126.859375 59.9453125 C-125.97719299 60.8303244 -125.09501099 61.7153363 -124.18609619 62.62716675 C-121.84805457 64.97450131 -119.51444126 67.32606785 -117.18286133 69.67980957 C-114.80003474 72.08313927 -112.41149652 74.48077767 -110.0234375 76.87890625 C-105.34368138 81.58071467 -100.66968133 86.28818664 -96 91 C-91.88410445 89.08845656 -88.89157997 86.34709386 -85.625 83.25 C-84.98941162 82.6530835 -84.35382324 82.05616699 -83.69897461 81.44116211 C-76.57158557 74.69035879 -69.66188217 67.71556711 -62.76611328 60.72949219 C-58.97875552 56.9058295 -55.2182826 53.11397118 -51.12109375 49.62109375 C-45.25428726 44.59738557 -39.92401181 38.99123178 -34.5 33.5 C-22.08473694 20.93087414 -22.08473694 20.93087414 -15.81445312 15.58740234 C-12.55586804 12.73657885 -9.53883872 9.64372596 -6.5 6.5625 C-5.86835938 5.92634766 -5.23671875 5.29019531 -4.5859375 4.63476562 C-3.05494226 3.09217194 -1.52712333 1.54642686 0 0 Z " fill="#FDFEFE" transform="translate(309,178)"/>
</svg>
